<svg viewBox="0 0 512 512" xmlns="http://www.w3.org/2000/svg"><g id="E-COMMERCE"><path d="m506.17 103.61-.08-.76a109.05 109.05 0 0 0 -97.22-97.13c-36.48-3.8-96.61-5.72-153.05-5.72s-116.58 1.92-153.06 5.72a109.05 109.05 0 0 0 -97.22 97.13l-.08.76c-3.15 30.26-5.64 35.12-5.64 98.94s2.49 74.12 5.64 104.39l.08.75a109.05 109.05 0 0 0 97.22 97.13c20.13 2.1 47.46 3.62 77.39 4.57l58.07 92.23a22.24 22.24 0 0 0 37.63 0l58.15-92.31c28.95-1 55.32-2.45 74.89-4.49a109 109 0 0 0 97.22-97.13l.08-.76c3.15-30.26 5.65-40.56 5.65-104.38s-2.52-68.67-5.67-98.94z" fill="#4193d2"/><path d="m5.54 307.69a108.91 108.91 0 0 0 3.34 17.62 275.52 275.52 0 0 0 112.86 24c152.79 0 276.65-123.86 276.65-276.65a277.28 277.28 0 0 0 -8.59-68.61c-36.43-2.69-86.51-4-134-4-56.43-.05-116.56 1.87-153.04 5.67a109.05 109.05 0 0 0 -97.22 97.13l-.08.76c-3.15 30.26-5.64 35.12-5.64 98.94s2.49 74.12 5.64 104.39z" fill="#48a4df"/><path d="m255.75 359.06a33.94 33.94 0 1 1 34-33.94 34 34 0 0 1 -34 33.94zm45.6-156.57c-22.48 17.57-22.89 29.84-22.89 51.09 0 7.77-4.09 16.76-24.12 16.76-16.76 0-22.48-6.13-22.48-27.39 0-35.15 15.54-51.91 27.39-62.13 13.49-11.45 36.38-24.12 36.38-46.19 0-18.8-16.35-27.8-36.79-27.8-41.69 0-32.7 31.48-54.78 31.48-11 0-24.52-7.36-24.52-23.3 0-22.07 25.34-54.78 80.53-54.78 52.32 0 87.07 29 87.07 67.45s-34.75 66.22-45.79 74.81z" fill="#fff"/></g></svg>